<?xml version="1.0" encoding="UTF-8"?>
<svg id="Livello_1" xmlns="http://www.w3.org/2000/svg" xmlns:xlink="http://www.w3.org/1999/xlink" version="1.1" viewBox="0 0 340 130">
  <!-- Generator: Adobe Illustrator 30.0.0, SVG Export Plug-In . SVG Version: 2.1.1 Build 123)  -->
  <defs>
    <style>
      .st0 {
        fill: #fff;
        fill-rule: evenodd;
      }

      .st1 {
        fill: url(#Sfumatura_senza_nome);
      }

      .st2 {
        fill: url(#Sfumatura_senza_nome_2);
      }
    </style>
    <linearGradient id="Sfumatura_senza_nome" data-name="Sfumatura senza nome" x1="1.64" y1="65.64" x2="71.86" y2="65.64" gradientTransform="translate(0 131.65) scale(1 -1)" gradientUnits="userSpaceOnUse">
      <stop offset="0" stop-color="#fff" stop-opacity="0"/>
      <stop offset=".09" stop-color="#fff" stop-opacity=".03"/>
      <stop offset=".22" stop-color="#fff" stop-opacity=".1"/>
      <stop offset=".37" stop-color="#fff" stop-opacity=".22"/>
      <stop offset=".54" stop-color="#fff" stop-opacity=".4"/>
      <stop offset=".72" stop-color="#fff" stop-opacity=".62"/>
      <stop offset=".92" stop-color="#fff" stop-opacity=".88"/>
      <stop offset="1" stop-color="#fff"/>
    </linearGradient>
    <linearGradient id="Sfumatura_senza_nome_2" data-name="Sfumatura senza nome 2" x1="-5213.17" y1="3059.74" x2="-5142.96" y2="3059.74" gradientTransform="translate(-4874.81 -2993.73) rotate(-180) scale(1 -1)" gradientUnits="userSpaceOnUse">
      <stop offset="0" stop-color="#fff" stop-opacity="0"/>
      <stop offset=".09" stop-color="#fff" stop-opacity=".03"/>
      <stop offset=".22" stop-color="#fff" stop-opacity=".1"/>
      <stop offset=".37" stop-color="#fff" stop-opacity=".22"/>
      <stop offset=".54" stop-color="#fff" stop-opacity=".4"/>
      <stop offset=".72" stop-color="#fff" stop-opacity=".62"/>
      <stop offset=".92" stop-color="#fff" stop-opacity=".88"/>
      <stop offset="1" stop-color="#fff"/>
    </linearGradient>
  </defs>
  <polygon class="st1" points="3.5 66.01 96.5 67.51 96.5 64.51 3.5 66.01"/>
  <g>
    <path class="st0" d="M155.51,90.05c-13.83,0-25.05-11.21-25.05-25.04s11.21-25.05,25.05-25.05c1.17,0,2.34.08,3.51.25v-10.52c-1.15-.11-2.32-.18-3.51-.18h-.07c-19.6.02-35.47,15.92-35.45,35.52.02,19.6,15.92,35.47,35.52,35.45,1.18,0,2.35-.07,3.51-.18v-10.51h0c-1.16.17-2.33.26-3.51.26Z"/>
    <path class="st0" d="M216.49,39.96c1.18,0,2.36.08,3.52.25v-10.52c-1.16-.11-2.34-.18-3.52-.18h-.04c-19.6,0-35.48,15.9-35.47,35.5s15.9,35.48,35.5,35.47c1.18,0,2.36-.07,3.52-.18v-10.51c-1.17.17-2.34.26-3.52.26-11.73-.02-21.88-8.17-24.45-19.62h20.5v-10.84h-20.5c2.56-11.45,12.71-19.6,24.45-19.62h0Z"/>
  </g>
  <polygon class="st2" points="336.5 66.01 243.5 64.51 243.5 67.51 336.5 66.01"/>
</svg>